{
	"asset":{
		"generator":"Khronos glTF Blender I/O v4.0.44",
		"version":"2.0"
	},
	"scene":0,
	"scenes":[
		{
			"name":"Scene",
			"nodes":[
				0,
				1,
				2,
				3
			]
		}
	],
	"nodes":[
		{
			"mesh":0,
			"name":"Flying_Toaster",
			"translation":[
				-101.13481140136719,
				4.159420490264893,
				47.6182975769043
			]
		},
		{
			"mesh":1,
			"name":"wings",
			"rotation":[
				0,
				0,
				-0.035298608243465424,
				0.9993768334388733
			],
			"translation":[
				-0.3705775737762451,
				29.398481369018555,
				18.431102752685547
			]
		},
		{
			"mesh":2,
			"name":"NurbsPath",
			"translation":[
				-0.7047786712646484,
				9.824202537536621,
				16.163650512695312
			]
		},
		{
			"mesh":3,
			"name":"wings.001",
			"rotation":[
				0.9993768334388733,
				0.035298608243465424,
				0,
				0
			],
			"scale":[
				-0.9999999403953552,
				-0.9999999403953552,
				-1
			],
			"translation":[
				-5.0453643798828125,
				35.22529602050781,
				16.7513427734375
			]
		}
	],
	"animations":[
		{
			"channels":[
				{
					"sampler":0,
					"target":{
						"node":1,
						"path":"rotation"
					}
				}
			],
			"name":"wingsAction",
			"samplers":[
				{
					"input":12,
					"interpolation":"LINEAR",
					"output":13
				}
			]
		},
		{
			"channels":[
				{
					"sampler":0,
					"target":{
						"node":3,
						"path":"rotation"
					}
				}
			],
			"name":"wingsAction.001",
			"samplers":[
				{
					"input":12,
					"interpolation":"LINEAR",
					"output":14
				}
			]
		}
	],
	"meshes":[
		{
			"name":"Flying_Toaster",
			"primitives":[
				{
					"attributes":{
						"POSITION":0,
						"NORMAL":1
					},
					"indices":2
				}
			]
		},
		{
			"name":"Flying_Toaster.001",
			"primitives":[
				{
					"attributes":{
						"POSITION":3,
						"NORMAL":4
					},
					"indices":5
				}
			]
		},
		{
			"name":"NurbsPath.001",
			"primitives":[
				{
					"attributes":{
						"POSITION":6,
						"NORMAL":7,
						"TEXCOORD_0":8
					},
					"indices":9
				}
			]
		},
		{
			"name":"Flying_Toaster.002",
			"primitives":[
				{
					"attributes":{
						"POSITION":10,
						"NORMAL":11
					},
					"indices":5
				}
			]
		}
	],
	"accessors":[
		{
			"bufferView":0,
			"componentType":5126,
			"count":420104,
			"max":[
				121.76593017578125,
				59.99999237060547,
				-6.938893903907228e-15
			],
			"min":[
				74.74713134765625,
				-7.8781755153811e-15,
				-89.0093994140625
			],
			"type":"VEC3"
		},
		{
			"bufferView":1,
			"componentType":5126,
			"count":420104,
			"type":"VEC3"
		},
		{
			"bufferView":2,
			"componentType":5125,
			"count":454728,
			"type":"SCALAR"
		},
		{
			"bufferView":3,
			"componentType":5126,
			"count":82799,
			"max":[
				-19.94086456298828,
				35.50410842895508,
				0.8417682647705078
			],
			"min":[
				-92.35041046142578,
				-5.134133338928223,
				-40.87846374511719
			],
			"type":"VEC3"
		},
		{
			"bufferView":4,
			"componentType":5126,
			"count":82799,
			"type":"VEC3"
		},
		{
			"bufferView":5,
			"componentType":5125,
			"count":90240,
			"type":"SCALAR"
		},
		{
			"bufferView":6,
			"componentType":5126,
			"count":1048,
			"max":[
				0.27476322650909424,
				1.707975149154663,
				1.3397870063781738
			],
			"min":[
				-0.27476322650909424,
				-1.7079752683639526,
				-1.3397871255874634
			],
			"type":"VEC3"
		},
		{
			"bufferView":7,
			"componentType":5126,
			"count":1048,
			"type":"VEC3"
		},
		{
			"bufferView":8,
			"componentType":5126,
			"count":1048,
			"type":"VEC2"
		},
		{
			"bufferView":9,
			"componentType":5123,
			"count":5748,
			"type":"SCALAR"
		},
		{
			"bufferView":10,
			"componentType":5126,
			"count":82799,
			"max":[
				-19.94086456298828,
				35.50410842895508,
				0.8417682647705078
			],
			"min":[
				-92.35041046142578,
				-5.134133338928223,
				-40.87846374511719
			],
			"type":"VEC3"
		},
		{
			"bufferView":11,
			"componentType":5126,
			"count":82799,
			"type":"VEC3"
		},
		{
			"bufferView":12,
			"componentType":5126,
			"count":82,
			"max":[
				1.3666666666666667
			],
			"min":[
				0.016666666666666666
			],
			"type":"SCALAR"
		},
		{
			"bufferView":13,
			"componentType":5126,
			"count":82,
			"type":"VEC4"
		},
		{
			"bufferView":14,
			"componentType":5126,
			"count":82,
			"type":"VEC4"
		}
	],
	"bufferViews":[
		{
			"buffer":0,
			"byteLength":5041248,
			"byteOffset":0,
			"target":34962
		},
		{
			"buffer":0,
			"byteLength":5041248,
			"byteOffset":5041248,
			"target":34962
		},
		{
			"buffer":0,
			"byteLength":1818912,
			"byteOffset":10082496,
			"target":34963
		},
		{
			"buffer":0,
			"byteLength":993588,
			"byteOffset":11901408,
			"target":34962
		},
		{
			"buffer":0,
			"byteLength":993588,
			"byteOffset":12894996,
			"target":34962
		},
		{
			"buffer":0,
			"byteLength":360960,
			"byteOffset":13888584,
			"target":34963
		},
		{
			"buffer":0,
			"byteLength":12576,
			"byteOffset":14249544,
			"target":34962
		},
		{
			"buffer":0,
			"byteLength":12576,
			"byteOffset":14262120,
			"target":34962
		},
		{
			"buffer":0,
			"byteLength":8384,
			"byteOffset":14274696,
			"target":34962
		},
		{
			"buffer":0,
			"byteLength":11496,
			"byteOffset":14283080,
			"target":34963
		},
		{
			"buffer":0,
			"byteLength":993588,
			"byteOffset":14294576,
			"target":34962
		},
		{
			"buffer":0,
			"byteLength":993588,
			"byteOffset":15288164,
			"target":34962
		},
		{
			"buffer":0,
			"byteLength":328,
			"byteOffset":16281752
		},
		{
			"buffer":0,
			"byteLength":1312,
			"byteOffset":16282080
		},
		{
			"buffer":0,
			"byteLength":1312,
			"byteOffset":16283392
		}
	],
	"buffers":[
		{
			"byteLength":16284704,
			"uri":"toaster.bin"
		}
	]
}
